<svg width="58" height="64" viewBox="0 0 58 64" fill="none" xmlns="http://www.w3.org/2000/svg">
<path d="M39.017 43.1359C41.078 41.5915 42.7894 39.6032 44.033 37.3085C45.2765 35.0139 46.0224 32.4676 46.2192 29.8459C46.4159 27.2243 46.0587 24.5897 45.1724 22.1246C44.286 19.6595 42.8916 17.4227 41.0856 15.5689C39.5121 13.9496 37.6403 12.6725 35.5807 11.813C33.5211 10.9535 31.3156 10.529 29.0944 10.5646C19.8717 10.7003 12.383 18.7411 12.4008 28.4894C12.3992 31.3507 13.0566 34.1713 14.3188 36.7185C15.5811 39.2656 17.4118 41.4663 19.6601 43.1388C19.7751 43.2285 19.8679 43.3452 19.9308 43.4792C19.9937 43.6132 20.0248 43.7607 20.0216 43.9096V46.2442C19.1804 46.7451 18.4959 47.4845 18.0492 48.3749C17.6026 49.2653 17.4126 50.2693 17.5017 51.2678C17.5908 52.2663 17.9554 53.2175 18.5521 54.0086C19.1488 54.7997 19.9527 55.3975 20.8684 55.7312V57.7797C20.8699 59.1706 21.4057 60.5041 22.3581 61.4876C23.3106 62.4712 24.602 63.0244 25.9489 63.026H32.723C34.07 63.0243 35.3613 62.4711 36.3138 61.4876C37.2662 60.504 37.802 59.1706 37.8036 57.7797V55.7301C38.7193 55.3964 39.5232 54.7986 40.1199 54.0075C40.7166 53.2164 41.0811 52.2652 41.1702 51.2667C41.2594 50.2682 41.0693 49.2642 40.6227 48.3738C40.1761 47.4834 39.4916 46.744 38.6503 46.2431V43.9093C38.6476 43.7596 38.6794 43.6114 38.7431 43.4769C38.8069 43.3424 38.9008 43.2255 39.017 43.1359ZM15.7887 28.4831C15.7743 20.6401 21.7653 14.1707 29.1438 14.0621C29.2073 14.0621 29.2725 14.0606 29.337 14.0606C32.8505 14.0605 36.2206 15.4991 38.7085 18.0609C40.1626 19.5566 41.2852 21.3601 41.999 23.3471C42.7127 25.3342 43.0007 27.4574 42.843 29.5704C42.6852 31.6835 42.0856 33.7361 41.0854 35.5867C40.0851 37.4373 38.7081 39.0419 37.0493 40.2898C36.4946 40.7035 36.0434 41.2476 35.7329 41.8772C35.4225 42.5068 35.2618 43.2037 35.2641 43.9102V45.5383H23.4095V43.9096C23.4122 43.2037 23.252 42.5074 22.9421 41.8783C22.6322 41.2492 22.1816 40.7054 21.6275 40.292C19.8172 38.9427 18.3436 37.1682 17.3284 35.1149C16.3132 33.0617 15.7854 30.7885 15.7887 28.4831ZM32.7239 59.5284H25.9498C25.5008 59.5279 25.0703 59.3435 24.7528 59.0157C24.4354 58.6878 24.2568 58.2433 24.2563 57.7797V56.0309H34.4174V57.7797C34.4169 58.2433 34.2383 58.6878 33.9208 59.0157C33.6033 59.3435 33.1729 59.5279 32.7239 59.5284ZM36.1109 52.5334H22.5627C22.1136 52.5334 21.6828 52.3491 21.3653 52.0212C21.0477 51.6932 20.8692 51.2484 20.8692 50.7846C20.8692 50.3208 21.0477 49.876 21.3653 49.548C21.6828 49.2201 22.1136 49.0358 22.5627 49.0358H36.1109C36.56 49.0358 36.9908 49.2201 37.3084 49.548C37.626 49.876 37.8044 50.3208 37.8044 50.7846C37.8044 51.2484 37.626 51.6932 37.3084 52.0212C36.9908 52.3491 36.56 52.5334 36.1109 52.5334Z" fill="#0082BD"/>
<path d="M32.0824 21.6117C33.1473 22.0732 34.0973 22.7774 34.8613 23.6717C35.6253 24.566 36.1834 25.6272 36.4938 26.7758C36.6207 27.2161 36.9102 27.5871 37.2997 27.8088C37.6893 28.0304 38.1477 28.0849 38.5758 27.9605C39.004 27.8361 39.3676 27.5427 39.588 27.1438C39.8084 26.7448 39.868 26.2724 39.7539 25.8284C39.3022 24.1688 38.4928 22.6361 37.3863 21.3452C36.2798 20.0544 34.9048 19.0387 33.3642 18.3743C32.9485 18.1987 32.4823 18.2008 32.0681 18.3802C31.6539 18.5596 31.3256 18.9015 31.1556 19.3308C30.9855 19.7601 30.9875 20.2415 31.1613 20.6692C31.335 21.097 31.6661 21.4359 32.0818 21.6115L32.0824 21.6117Z" fill="#0082BD"/>
<path d="M31.0303 5.31685V1.81932C31.0303 1.35552 30.8519 0.910715 30.5343 0.582758C30.2167 0.254801 29.7859 0.0705566 29.3368 0.0705566C28.8876 0.0705566 28.4569 0.254801 28.1393 0.582758C27.8217 0.910715 27.6432 1.35552 27.6432 1.81932V5.31685C27.6432 5.78065 27.8217 6.22545 28.1393 6.55341C28.4569 6.88137 28.8876 7.06561 29.3368 7.06561C29.7859 7.06561 30.2167 6.88137 30.5343 6.55341C30.8519 6.22545 31.0303 5.78065 31.0303 5.31685Z" fill="#0082BD"/>
<path d="M19.6942 9.18271C19.9762 9.18216 20.2537 9.10892 20.5014 8.96962C20.7491 8.83032 20.9593 8.62938 21.1127 8.38501C21.2662 8.14064 21.3582 7.86057 21.3803 7.57021C21.4025 7.27984 21.3541 6.98837 21.2395 6.7222L19.8618 3.52699C19.6791 3.10328 19.3409 2.77187 18.9216 2.60565C18.5023 2.43944 18.0362 2.45205 17.6259 2.6407C17.2155 2.82935 16.8946 3.17859 16.7336 3.6116C16.5727 4.0446 16.5849 4.5259 16.7676 4.94961L18.1453 8.14482C18.2785 8.45404 18.4957 8.7167 18.7707 8.90093C19.0456 9.08516 19.3664 9.18304 19.6942 9.18271Z" fill="#0082BD"/>
<path d="M11.7166 15.1663C12.0592 15.1664 12.3937 15.0592 12.6761 14.8589C12.9585 14.6586 13.1754 14.3746 13.2982 14.0444C13.421 13.7141 13.4439 13.3532 13.3639 13.0092C13.2839 12.6652 13.1048 12.3544 12.8502 12.1177L10.3332 9.77744C9.99932 9.4671 9.55972 9.30643 9.11111 9.33078C8.66251 9.35513 8.24165 9.56251 7.94111 9.90729C7.64057 10.2521 7.48498 10.706 7.50856 11.1692C7.53214 11.6325 7.73297 12.0671 8.06685 12.3774L10.5838 14.7164C10.8943 15.0062 11.298 15.1666 11.7166 15.1663Z" fill="#0082BD"/>
<path d="M8.39838 22.7742C8.53713 22.3331 8.50051 21.8532 8.29657 21.4399C8.09264 21.0267 7.73809 20.7141 7.31093 20.5708L4.08964 19.4903C3.87772 19.4177 3.65399 19.3891 3.43133 19.4062C3.20867 19.4232 2.99148 19.4855 2.79224 19.5896C2.593 19.6937 2.41565 19.8374 2.2704 20.0125C2.12515 20.1876 2.01486 20.3906 1.94588 20.6099C1.87691 20.8291 1.8506 21.0603 1.86847 21.2901C1.88635 21.52 1.94806 21.7439 2.05005 21.949C2.15204 22.154 2.2923 22.3363 2.46275 22.4852C2.6332 22.6341 2.83049 22.7468 3.04326 22.8166L6.26455 23.8976C6.47605 23.9688 6.69908 23.9963 6.92087 23.9784C7.14266 23.9605 7.35886 23.8976 7.55707 23.7933C7.75529 23.689 7.93162 23.5453 8.07599 23.3705C8.22035 23.1957 8.32991 22.9932 8.39838 22.7747V22.7742Z" fill="#0082BD"/>
<path d="M5.58016 30.6196L2.21175 30.9853C1.98941 31.0078 1.77359 31.0755 1.5767 31.1845C1.37981 31.2935 1.20575 31.4416 1.06454 31.6204C0.923339 31.7992 0.817781 32.005 0.75395 32.2261C0.690119 32.4471 0.669277 32.6791 0.692623 32.9085C0.715968 33.1379 0.78304 33.3603 0.889977 33.5628C0.996914 33.7654 1.1416 33.9441 1.3157 34.0886C1.48981 34.2332 1.68989 34.3407 1.90442 34.4051C2.11894 34.4694 2.34369 34.4893 2.56569 34.4636L5.93431 34.0979C6.37895 34.0468 6.78594 33.8161 7.06643 33.4562C7.34691 33.0963 7.47808 32.6364 7.4313 32.177C7.38452 31.7176 7.16359 31.2959 6.81675 31.0041C6.46992 30.7123 6.02536 30.5741 5.58016 30.6196Z" fill="#0082BD"/>
<path d="M52.739 34.0979L56.1074 34.4636C56.5529 34.5098 56.998 34.3719 57.3453 34.0801C57.6926 33.7883 57.9138 33.3663 57.9607 32.9065C58.0075 32.4467 57.8761 31.9865 57.5953 31.6265C57.3144 31.2664 56.9068 31.0359 56.4618 30.9853L53.0932 30.6196C52.8713 30.5941 52.6467 30.6142 52.4324 30.6787C52.218 30.7431 52.0181 30.8507 51.8442 30.9953C51.6702 31.1398 51.5257 31.3184 51.4189 31.5208C51.312 31.7233 51.245 31.9455 51.2217 32.1748C51.1983 32.4041 51.2191 32.6358 51.2829 32.8568C51.3466 33.0777 51.452 33.2835 51.593 33.4622C51.734 33.641 51.9079 33.7891 52.1045 33.8982C52.3012 34.0073 52.5168 34.0752 52.739 34.0979Z" fill="#0082BD"/>
<path d="M51.885 23.9831C52.0628 23.983 52.2396 23.954 52.4087 23.897L55.63 22.8165C55.8415 22.7455 56.0374 22.6322 56.2065 22.4831C56.3756 22.334 56.5146 22.1519 56.6156 21.9473C56.7166 21.7426 56.7775 21.5195 56.795 21.2905C56.8124 21.0616 56.786 20.8313 56.7173 20.6129C56.6486 20.3945 56.5389 20.1922 56.3944 20.0176C56.25 19.843 56.0737 19.6994 55.8755 19.5952C55.6774 19.4909 55.4613 19.428 55.2396 19.4099C55.0179 19.3919 54.7949 19.4192 54.5834 19.4901L51.3623 20.5706C50.9784 20.699 50.6516 20.9646 50.4406 21.3197C50.2295 21.6748 50.1482 22.096 50.2112 22.5076C50.2743 22.9191 50.4775 23.2938 50.7843 23.5643C51.0912 23.8349 51.4815 23.9834 51.885 23.9831Z" fill="#0082BD"/>
<path d="M48.0894 14.7164L50.6061 12.3774C50.9399 12.067 51.1407 11.6324 51.1642 11.1693C51.1877 10.7061 51.032 10.2522 50.7315 9.90749C50.4309 9.5628 50.01 9.35552 49.5615 9.33126C49.1129 9.30699 48.6734 9.46772 48.3396 9.77809L45.8228 12.1177C45.4952 12.4297 45.2999 12.8625 45.2792 13.3223C45.2586 13.782 45.4143 14.2316 45.7126 14.5736C46.0108 14.9155 46.4276 15.1223 46.8726 15.1491C47.3175 15.1758 47.7547 15.0203 48.0894 14.7164Z" fill="#0082BD"/>
<path d="M38.9791 9.18271C39.3067 9.18287 39.6273 9.08491 39.9021 8.90069C40.1769 8.71647 40.394 8.45391 40.5272 8.14482L41.9049 4.94961C42.0875 4.5259 42.0998 4.0446 41.9388 3.6116C41.7778 3.17859 41.4569 2.82935 41.0466 2.6407C40.6362 2.45205 40.1701 2.43944 39.7508 2.60565C39.3315 2.77187 38.9933 3.10328 38.8106 3.52699L37.4329 6.7222C37.3184 6.98836 37.27 7.27984 37.2921 7.57021C37.3142 7.86057 37.4062 8.14064 37.5597 8.38501C37.7132 8.62938 37.9233 8.83032 38.171 8.96962C38.4187 9.10892 38.6962 9.18216 38.9782 9.18271H38.9791Z" fill="#0082BD"/>
</svg>
